<?xml version="1.0" encoding="utf-8"?>
<!-- Generator: Adobe Illustrator 26.3.0, SVG Export Plug-In . SVG Version: 6.00 Build 0)  -->
<svg version="1.1" xmlns="http://www.w3.org/2000/svg" xmlns:xlink="http://www.w3.org/1999/xlink" x="0px" y="0px"
	 viewBox="0 0 450 150" style="enable-background:new 0 0 450 150;" xml:space="preserve">
<g id="Layer_2">
	<g>
		<path d="M102.2,105.79c0,14.8-14,27-31.4,27H9.6c-2,0-2.8-2.6-0.8-4.2c7-5.2,8.2-9.6,8.2-17V52c0-7.2-1.2-11.8-8.2-17
			c-2-1.6-1.2-4,0.8-4h52c15,0,29.8,12,29.8,26.8c0,9-5.6,17-13.4,22C92,82.6,102.2,93.19,102.2,105.79z M47.4,36.6
			C46.6,44.2,45.2,59.4,45,79h0.8c11.8,0,19.4-9.6,19.4-21.2C65.2,46.6,58.2,37.4,47.4,36.6z M73.6,105.79
			c0-11.6-10.2-21.2-22.2-21.2H45c0.2,12.8,0.8,27.2,2.6,42.6h3.8C63.4,127.19,73.6,117.59,73.6,105.79z"/>
		<path d="M175.6,132.79h-20.4c-10.8,0-15-9.6-15-9.6c-4.4,5.8-11.6,9.6-19.6,9.6c-13.4,0-24.4-10.6-24.4-23.6
			c0-13,11-23.6,24.4-23.6c5.1,0,10.16,1.58,14.33,4.53c1.81,1.28,3.95,2.95,5.08,4.9c1.49,2.56,2.52,5.39,4.1,7.94
			c0.94,1.51,2.34,3.16,4.09,2.89c1.42-0.21,2.36-1.71,2.4-3.15s-0.62-2.79-1.35-4.02c-1.25-2.11-2.83-4.1-4.95-5.34
			c-0.85-0.49-1.78-0.86-2.51-1.52c-2.03-1.84-1.65-5.73-1.94-8.22c-0.36-3.16-1.01-6.3-2.06-9.3c-1.4-4.01-4.18-9.91-9.21-9.91
			c-3,0-3,4.8-0.6,10c4.2,9.8-25.8,13.8-25.8,2.2c0-8.6,10-17.8,28.4-17.8c21.4,0,37.6,14.8,37.6,36.4v16.4c0,7.4,1.2,11.8,8.2,17
			C178.4,130.19,177.8,132.79,175.6,132.79z M139.4,109.19c0-7-4.4-12.8-10-12.8c-5.4,0-9.8,5.8-9.8,12.8s4.4,12.8,9.8,12.8
			C135,121.99,139.4,116.19,139.4,109.19z"/>
		<path d="M252.24,71.4c3.8,19-29.8,25.2-27.6,9.6c0.8-4.4,2.6-8.4-1-8.4c-4.8,0-11.6,7.4-15.4,14.6c-1.4,22.2,1.4,36.4,7,40.6
			c2.2,1.6,2.2,5-2,5h-39c-2,0-2.8-2.6-0.8-4.2c7-5.2,8.2-9.6,8.2-17v-16.8c0-7.4-1.2-11.8-8.2-17.2c-2-1.6-1.2-4,0.8-4
			c19.2,0,27.2-13,34.8-14.6c3.41-0.72,2.28,1.71,2.29,3.89c0.02,3.56-0.96,5.45-3.48,8.16c-1.18,1.26-2.36,2.53-3.53,3.79
			c-0.99,1.07-2,2.15-2.7,3.43c-1.27,2.32-1.29,4.41,1.07,5.67c0.53,0.28,1.11,0.54,1.71,0.48c1.06-0.12,1.72-1.19,2.06-2.2
			c0.63-1.89,1.63-3.94,2.89-5.52c0.83-1.03,1.59-2.12,2.39-3.18c1.8-2.38,3.75-4.66,5.88-6.76c4.1-4.02,9.41-7.96,15.42-7.96
			C240.84,58.8,250.64,63,252.24,71.4z"/>
		<path d="M332.4,95.79c0,20.4-18,37-40,37c-5.73,0-11.46,0-17.19,0c-8.73,0-17.46,0-26.2,0c-6.48,0-13.07-0.39-19.17-2.81
			c-4.6-1.82-8.82-4.87-11.43-9.07c-1.03-1.67-1.8-3.48-2.49-5.32c-1.06-2.86-1.94-5.81-2.19-8.84c-0.31-3.79,0.37-7.64,1.85-11.14
			c0.34-0.8,0.73-1.6,1.34-2.21s1.49-1.02,2.34-0.88c1.43,0.23,2.23,1.87,2.15,3.32s-0.8,2.76-1.31,4.11
			c-1.51,3.97-1.27,8.65,0.93,12.29c0.8,1.32,1.83,2.48,2.9,3.59c0.8,0.82,1.63,1.61,2.55,2.29c4.59,3.37,10.92,3.4,16.39,1.81
			c1.43-0.42,2.84-0.94,4.1-1.72c2.67-1.66,5.12-4.97,4.95-8.21c-0.09-1.77-0.13-3.54-0.13-5.33c0-4.89,0-9.78,0-14.67
			c0-7.74,0-15.49,0-23.23c0-0.06,0-0.11,0-0.17c0-7.4-1.2-11.8-8.2-17c-2-1.6-1.2-4,0.8-4c7.5,0,14.57-2.24,20.97-6.07
			c2.75-1.64,5.26-3.1,6.99-5.8c2.45-3.8,5.24-7.36,8.38-10.61c2.74-2.84,6.02-5.56,9.95-5.9c1.42-0.12,3.3,0.6,3.1,2.01
			c-0.09,0.66-0.63,1.15-1.15,1.56c-3.15,2.54-6.7,4.68-9.15,7.9c-3.17,4.17-4.09,9.62-4.25,14.86c-0.17,5.29,1.31,11.92-1.76,16.41
			c-3.67,5.37-6.51,11.16-8.12,17.49c2.26-5.25,4.61-10.44,8.29-14.88c3.12-3.75,10.18-3.78,14.74-3.78
			C314.4,58.8,332.4,75.4,332.4,95.79z M304,95.79c0-17.4-5.2-31.4-11.6-31.4s-11.6,14-11.6,31.4c0,17.2,5.2,31.4,11.6,31.4
			S304,112.99,304,95.79z"/>
		<path d="M402.8,112.79c-6.6,11.8-20,20-35.4,20c-22.2,0-40-16.6-40-37c0-20.4,17.6-37,41.6-37c15.6,0,32.4,10.6,32.4,23.8
			c0,13-12.8,23.6-28.4,23.6c-5.2,0-9.8-1.2-14-3c2,6.6,6.4,12.2,14.4,14.6c7.4,2,19.6-0.6,25.2-8
			C400.6,107.19,404,110.59,402.8,112.79z M358.2,83.39c0,10.6,5,17.2,9.8,17.2c5.4,0,9.2-8.2,9.2-18c0-10-3.8-18.2-9.2-18.2
			C364.8,64.4,358.2,70.6,358.2,83.39z"/>
		<path d="M438.79,132.79h-39.6c-2,0-2.8-2.95-0.8-4.76c7-5.89,8.2-10.88,8.2-19.27c0-7.24,0-14.49,0-21.73
			c0-5.61-0.46-11.49,0.04-17.07c0.52-5.78,0.01-11.63,2.21-17.09c1.9-4.72,5.21-8.7,9.26-11.14c-2.45,0.45-4.64,1.94-6.95,2.97
			c-2.15,0.95-5.32,1.78-7.27-0.05c-1.96-1.83-3.36-4.37-5.49-6.16c-2-1.81-1.2-4.53,0.8-4.53c6.75,0,13.99-1.94,19.75-6.07
			c2.57-1.85,5.28-3.39,7.78-5.43c2.45-2.01,4.86-4.23,7.87-5.04c4.2-1.13,2.4,2.72,2,5.67c-7,43.3-3,97.7,4.4,104.05
			C442.99,128.94,443.19,132.79,438.79,132.79z"/>
	</g>
</g>
<g id="Layer_3">
</g>
</svg>
